<svg width="201" height="75" viewBox="0 0 201 75" fill="none" xmlns="http://www.w3.org/2000/svg">
<path d="M67.4 24.2C65.9 24.2 64.6667 23.7667 63.7 22.9C62.7667 22 62.3 20.9 62.3 19.6C62.3 18.2667 62.7667 17.1667 63.7 16.3C64.6667 15.4 65.9 14.95 67.4 14.95C68.8667 14.95 70.0667 15.4 71 16.3C71.9667 17.1667 72.45 18.2667 72.45 19.6C72.45 20.9 71.9667 22 71 22.9C70.0667 23.7667 68.8667 24.2 67.4 24.2ZM71.65 27.1V55H63.1V27.1H71.65ZM94.8461 26.8C98.1128 26.8 100.713 27.8667 102.646 30C104.613 32.1 105.596 35 105.596 38.7V55H97.0961V39.85C97.0961 37.9833 96.6128 36.5333 95.6461 35.5C94.6794 34.4667 93.3794 33.95 91.7461 33.95C90.1128 33.95 88.8128 34.4667 87.8461 35.5C86.8794 36.5333 86.3961 37.9833 86.3961 39.85V55H77.8461V27.1H86.3961V30.8C87.2628 29.5667 88.4294 28.6 89.8961 27.9C91.3628 27.1667 93.0128 26.8 94.8461 26.8ZM124.088 47L130.138 27.1H139.238L129.338 55H118.788L108.888 27.1H118.038L124.088 47ZM155.536 55.4C152.803 55.4 150.336 54.8167 148.136 53.65C145.97 52.4833 144.253 50.8167 142.986 48.65C141.753 46.4833 141.136 43.95 141.136 41.05C141.136 38.1833 141.77 35.6667 143.036 33.5C144.303 31.3 146.036 29.6167 148.236 28.45C150.436 27.2833 152.903 26.7 155.636 26.7C158.37 26.7 160.836 27.2833 163.036 28.45C165.236 29.6167 166.97 31.3 168.236 33.5C169.503 35.6667 170.136 38.1833 170.136 41.05C170.136 43.9167 169.486 46.45 168.186 48.65C166.92 50.8167 165.17 52.4833 162.936 53.65C160.736 54.8167 158.27 55.4 155.536 55.4ZM155.536 48C157.17 48 158.553 47.4 159.686 46.2C160.853 45 161.436 43.2833 161.436 41.05C161.436 38.8167 160.87 37.1 159.736 35.9C158.636 34.7 157.27 34.1 155.636 34.1C153.97 34.1 152.586 34.7 151.486 35.9C150.386 37.0667 149.836 38.7833 149.836 41.05C149.836 43.2833 150.37 45 151.436 46.2C152.536 47.4 153.903 48 155.536 48ZM191.172 55L185.822 47.25L181.322 55H172.072L181.272 40.75L171.822 27.1H181.422L186.772 34.8L191.272 27.1H200.522L191.172 41.15L200.772 55H191.172Z" fill="#1D2149"/>
<path d="M43.2375 53.4C48.4033 50.4763 52.4559 45.9245 54.7626 40.4553C57.0694 34.986 57.5006 28.9069 55.9888 23.1668C54.4771 17.4267 51.1076 12.3486 46.4061 8.72497C41.7047 5.10138 35.9358 3.13623 30 3.13623C24.0642 3.13623 18.2954 5.10138 13.5939 8.72497C8.89244 12.3486 5.5229 17.4267 4.01118 23.1668C2.49946 28.9069 2.93063 34.986 5.23738 40.4553C7.54414 45.9245 11.5967 50.4763 16.7625 53.4" stroke="#1D2149" stroke-width="2" stroke-linecap="round" stroke-linejoin="round"/>
<path d="M40.4126 45.6625C43.7548 43.4325 46.2922 40.1879 47.651 36.4068C49.0098 32.6257 49.1182 28.5081 47.96 24.6608C46.8018 20.8135 44.4384 17.44 41.2181 15.0374C37.9978 12.6348 34.0909 11.3301 30.0731 11.3157C26.0553 11.3013 22.1391 12.5779 18.9016 14.9574C15.6642 17.3369 13.2767 20.6934 12.0909 24.5323C10.9052 28.3711 10.984 32.4894 12.3157 36.2801C13.6474 40.0709 16.1615 43.3336 19.4876 45.5875" stroke="#1D2149" stroke-width="2" stroke-linecap="round" stroke-linejoin="round"/>
<path d="M37.5 37.675C39.0266 36.1862 40.0759 34.2771 40.5145 32.1904C40.9531 30.1037 40.7613 27.9337 39.9633 25.9563C39.1654 23.9789 37.7975 22.2835 36.0334 21.0857C34.2694 19.8878 32.189 19.2416 30.0567 19.2292C27.9244 19.2169 25.8366 19.8389 24.0588 21.0163C22.281 22.1936 20.8935 23.8731 20.0727 25.8411C19.2519 27.8091 19.035 29.9767 19.4494 32.0683C19.8638 34.16 20.8909 36.0811 22.4 37.5875" stroke="#1D2149" stroke-width="2" stroke-linecap="round" stroke-linejoin="round"/>
<path d="M29.9999 32.6625C31.4704 32.6625 32.6624 31.4705 32.6624 30C32.6624 28.5295 31.4704 27.3375 29.9999 27.3375C28.5294 27.3375 27.3374 28.5295 27.3374 30C27.3374 31.4705 28.5294 32.6625 29.9999 32.6625Z" stroke="#1D2149" stroke-width="2" stroke-linecap="round" stroke-linejoin="round"/>
<path d="M29.0875 32.5L20.8125 55.25M30.9125 32.5L39.1875 55.25" stroke="#1D2149" stroke-width="2" stroke-linecap="round" stroke-linejoin="round"/>
</svg>
